<?xml version="1.0" encoding="UTF-8"?>
<svg width="21px" height="19px" viewBox="0 0 21 19" version="1.1" xmlns="http://www.w3.org/2000/svg" xmlns:xlink="http://www.w3.org/1999/xlink">
    <title>Group</title>
    <g id="Page-1" stroke="none" stroke-width="1" fill="none" fill-rule="evenodd" stroke-linecap="round" stroke-linejoin="round">
        <g id="Articles-Copy-6" transform="translate(-399.000000, -236.000000)" stroke="#000000" stroke-width="1.25">
            <g id="book-open-text" transform="translate(400.000000, 237.000000)">
                <path d="M9.5,17 L9.5,2.38170806 C9.5,2.38170806 7.42689214,0.0923792814 0.437436418,0 C0.321495366,-0.00141899063 0.209938681,0.0440335748 0.128370236,0.125959462 C0.0460026461,0.208241512 -0.000160065193,0.319652164 0,0.435736624 L0,14.1826229 C-0.00192325763,14.4178702 0.185697473,14.6114815 0.422236442,14.6183257 C7.42520325,14.7123502 9.5,17 9.5,17" id="Shape"></path>
                <path d="M6.96667063,7.8116232 C5.52964291,7.33110544 4.03717094,7.03351051 2.52489981,6.92594595" id="Shape"></path>
                <path d="M6.96667063,11.3333446 C5.52964291,10.8528268 4.03717094,10.5552319 2.52489981,10.4476673" id="Shape"></path>
                <path d="M12.0333294,7.8116232 C13.4703571,7.33110544 14.9628291,7.03351051 16.4751002,6.92594595" id="Shape"></path>
                <path d="M12.0333294,11.3333446 C13.4703571,10.8528268 14.9628291,10.5552319 16.4751002,10.4476673" id="Shape"></path>
                <path d="M9.5,17 L9.5,2.38170806 C9.5,2.38170806 11.5731079,0.0923792814 18.5625636,0 C18.6785046,-0.00141899063 18.7900613,0.0440335748 18.8716298,0.125959462 C18.9539974,0.208241512 19.0001601,0.319652164 19,0.435736624 L19,14.1826229 C19.0019233,14.4178702 18.8143025,14.6114815 18.5777636,14.6183257 C11.5747967,14.7123502 9.5,17 9.5,17" id="Shape"></path>
            </g>
        </g>
    </g>
</svg>