<?xml version="1.0" encoding="UTF-8"?>
<svg width="21px" height="9px" viewBox="0 0 21 9" version="1.1" xmlns="http://www.w3.org/2000/svg" xmlns:xlink="http://www.w3.org/1999/xlink">
    <title>Group</title>
    <g id="Page-1" stroke="none" stroke-width="1" fill="none" fill-rule="evenodd" stroke-linecap="round" stroke-linejoin="round">
        <g id="Article" transform="translate(-880.000000, -1291.000000)" stroke="#000000" stroke-width="1.60869565">
            <g id="hyperlink" transform="translate(881.451087, 1291.880435)">
                <path d="M7.50617391,1.20652174 C6.82549753,0.440892468 5.85054026,0.00198613363 4.82608696,0 L3.61956522,0 C1.62053455,0 0,1.62053455 0,3.61956522 C0,5.61859589 1.62053455,7.23913043 3.61956522,7.23913043 L4.82608696,7.23913043 C5.85045178,7.23673435 6.82524929,6.79789994 7.50617391,6.0326087" id="Shape"></path>
                <path d="M10.5916522,1.20652174 C11.2722664,0.440807858 12.2472637,0.00188350844 13.2717391,0 L14.4782609,0 C16.4772915,0 18.0978261,1.62053455 18.0978261,3.61956522 C18.0978261,5.61859589 16.4772915,7.23913043 14.4782609,7.23913043 L13.2717391,7.23913043 C12.2473301,7.23693922 11.2724528,6.79806887 10.5916522,6.0326087" id="Shape"></path>
                <line x1="4.82608696" y1="3.61876087" x2="13.2717391" y2="3.61876087" id="Shape"></line>
            </g>
        </g>
    </g>
</svg>