<?xml version="1.0" encoding="UTF-8"?>
<svg width="125px" height="50px" viewBox="0 0 125 50" version="1.1" xmlns="http://www.w3.org/2000/svg" xmlns:xlink="http://www.w3.org/1999/xlink">
    <title>Logo</title>
    <defs>
        <path d="M30.5172483,0 C23.937825,0.768422522 14.6844895,3.91475923 8.82467239,9.76106385 L8.82467239,9.76106385 C3.87011223,14.7042713 0.855646726,19.8936485 0.163817009,27.1785115 L0.163817009,27.1785115 C0.162008304,27.1981947 0.160457985,27.2182664 0.15864928,27.2379497 L0.15864928,27.2379497 C0.137719977,27.4619758 0.11859938,27.6879443 0.102062647,27.9161143 L0.102062647,27.9161143 C0.0958613726,28.0005449 0.0913396097,28.0865295 0.0859134943,28.1717371 L0.0859134943,28.1717371 C0.0751904567,28.3364546 0.064467419,28.5011721 0.0559406662,28.6680909 L0.0559406662,28.6680909 C0.0484474592,28.8155856 0.0434089234,28.9652817 0.0377244216,29.1144597 L0.0377244216,29.1144597 C0.0343653977,29.208473 0.0291976687,29.3009323 0.0263554178,29.3954636 L0.0263554178,29.3954636 C0.00943110539,29.700683 0,30.0077153 0,30.3170785 L0,30.3170785 C0,30.3209634 0,30.3249777 0,30.3289921 L0,30.3289921 C0,30.3324884 0,30.3361143 0,30.3397401 L0,30.3397401 C0,30.3422005 0,30.3444019 0,30.3467329 L0,30.3467329 C0,30.3511357 0,30.355409 0,30.3596823 L0,30.3596823 C0,30.3686175 0.000387579673,30.3774231 0.000645966122,30.3862288 L0.000645966122,30.3862288 C0.000645966122,30.3934805 0.000387579673,30.4004732 0.000387579673,30.4077249 L0.000387579673,30.4077249 C0.000387579673,30.4494223 0.00167951192,30.4908606 0.00193789837,30.5324285 L0.00193789837,30.5324285 C0.0010335458,30.5653202 0,30.5979529 0,30.6316216 L0,30.6316216 L0.000387579673,30.6313626 C0.000387579673,30.6380963 0,30.6447005 0,30.6515638 L0,30.6515638 L0.00348821706,30.6493624 C0.132423055,39.3492158 7.20743161,46.3622691 15.917768,46.3622691 L15.917768,46.3622691 C24.708721,46.3622691 31.8351484,39.2190735 31.8351484,30.4077249 L31.8351484,30.4077249 C31.8351484,23.6909558 27.6939888,17.9444918 21.8314587,15.5914406 L21.8314587,15.5914406 L21.8436028,15.5563475 C21.8911459,15.3808819 21.9416605,15.2069703 21.9939837,15.0337062 L21.9939837,15.0337062 C21.9923042,15.0330587 21.9906247,15.0324113 21.9889452,15.0316343 L21.9889452,15.0316343 C23.7360252,9.22676804 28.1155463,4.63889451 32.6535875,1.91717146 L32.6535875,1.91717146 C32.6579801,1.91445207 32.6623726,1.91173267 32.6667652,1.90901328 L32.6667652,1.90901328 L31.9547813,1.28044521 C31.957236,1.27953875 31.9595615,1.27850279 31.961887,1.27759633 L31.961887,1.27759633 L31.2396968,0.638798163 L30.5172483,0 Z" id="path-1"></path>
        <linearGradient x1="0%" y1="50.0000117%" x2="100.000117%" y2="50.0000117%" id="linearGradient-3">
            <stop stop-color="#4138D1" offset="0%"></stop>
            <stop stop-color="#171777" offset="100%"></stop>
        </linearGradient>
        <polygon id="path-4" points="0 0 9.98066753 0 9.98066753 13.5215947 0 13.5215947"></polygon>
        <polygon id="path-6" points="0 0 8.67315458 0 8.67315458 12.4637512 0 12.4637512"></polygon>
    </defs>
    <g id="Page-1" stroke="none" stroke-width="1" fill="none" fill-rule="evenodd">
        <g id="Beta-Signup-Page-Copy" transform="translate(-658.000000, -145.000000)">
            <g id="Group-37" transform="translate(658.000000, 145.000000)">
                <g id="Group-3">
                    <mask id="mask-2" fill="white">
                        <use xlink:href="#path-1"></use>
                    </mask>
                    <g id="Clip-2"></g>
                    <path d="M30.5172483,0 C23.937825,0.768422522 14.6844895,3.91475923 8.82467239,9.76106385 L8.82467239,9.76106385 C3.87011223,14.7042713 0.855646726,19.8936485 0.163817009,27.1785115 L0.163817009,27.1785115 C0.162008304,27.1981947 0.160457985,27.2182664 0.15864928,27.2379497 L0.15864928,27.2379497 C0.137719977,27.4619758 0.11859938,27.6879443 0.102062647,27.9161143 L0.102062647,27.9161143 C0.0958613726,28.0005449 0.0913396097,28.0865295 0.0859134943,28.1717371 L0.0859134943,28.1717371 C0.0751904567,28.3364546 0.064467419,28.5011721 0.0559406662,28.6680909 L0.0559406662,28.6680909 C0.0484474592,28.8155856 0.0434089234,28.9652817 0.0377244216,29.1144597 L0.0377244216,29.1144597 C0.0343653977,29.208473 0.0291976687,29.3009323 0.0263554178,29.3954636 L0.0263554178,29.3954636 C0.00943110539,29.700683 0,30.0077153 0,30.3170785 L0,30.3170785 C0,30.3209634 0,30.3249777 0,30.3289921 L0,30.3289921 C0,30.3324884 0,30.3361143 0,30.3397401 L0,30.3397401 C0,30.3422005 0,30.3444019 0,30.3467329 L0,30.3467329 C0,30.3511357 0,30.355409 0,30.3596823 L0,30.3596823 C0,30.3686175 0.000387579673,30.3774231 0.000645966122,30.3862288 L0.000645966122,30.3862288 C0.000645966122,30.3934805 0.000387579673,30.4004732 0.000387579673,30.4077249 L0.000387579673,30.4077249 C0.000387579673,30.4494223 0.00167951192,30.4908606 0.00193789837,30.5324285 L0.00193789837,30.5324285 C0.0010335458,30.5653202 0,30.5979529 0,30.6316216 L0,30.6316216 L0.000387579673,30.6313626 C0.000387579673,30.6380963 0,30.6447005 0,30.6515638 L0,30.6515638 L0.00348821706,30.6493624 C0.132423055,39.3492158 7.20743161,46.3622691 15.917768,46.3622691 L15.917768,46.3622691 C24.708721,46.3622691 31.8351484,39.2190735 31.8351484,30.4077249 L31.8351484,30.4077249 C31.8351484,23.6909558 27.6939888,17.9444918 21.8314587,15.5914406 L21.8314587,15.5914406 L21.8436028,15.5563475 C21.8911459,15.3808819 21.9416605,15.2069703 21.9939837,15.0337062 L21.9939837,15.0337062 C21.9923042,15.0330587 21.9906247,15.0324113 21.9889452,15.0316343 L21.9889452,15.0316343 C23.7360252,9.22676804 28.1155463,4.63889451 32.6535875,1.91717146 L32.6535875,1.91717146 C32.6579801,1.91445207 32.6623726,1.91173267 32.6667652,1.90901328 L32.6667652,1.90901328 L31.9547813,1.28044521 C31.957236,1.27953875 31.9595615,1.27850279 31.961887,1.27759633 L31.961887,1.27759633 L31.2396968,0.638798163 L30.5172483,0 Z" id="Fill-1" fill="url(#linearGradient-3)" mask="url(#mask-2)"></path>
                </g>
                <g id="Group-36" transform="translate(36.470472, 2.689233)">
                    <path d="M13.1665595,29.3219364 L8.82980136,40.8432239 L8.67321917,40.8432239 L2.74299178,26.2323184 C1.8025943,24.0327187 1.59343047,23.482754 9.04352572e-05,23.456596 L9.04352572e-05,23.0376802 C0.940358723,23.0638381 2.35127793,23.0899961 3.86619768,23.0899961 C5.38150501,23.0899961 6.94913559,23.0638381 8.2551499,23.0376802 L8.2551499,23.456596 C6.53106632,23.482754 6.11312624,23.823196 6.11312624,24.5301085 C6.11312624,24.8967084 6.24335301,25.3943572 6.50484009,26.0226663 L10.0837508,35.4492449 L12.722264,28.1437921 L12.0691923,26.3369503 C11.2069567,23.9804028 10.8937923,23.482754 9.58726124,23.456596 L9.58726124,23.0376802 C10.5280463,23.0638381 11.8600284,23.0899961 13.2967863,23.0899961 C14.7600288,23.0899961 16.2489807,23.0638381 17.5551242,23.0376802 L17.5551242,23.456596 C15.7788465,23.508912 15.3087124,23.823196 15.3087124,24.6088413 C15.3087124,24.9490243 15.4389391,25.4205151 15.648103,26.0226663 L18.835429,35.4754028 L21.8914947,26.6512343 C22.2050467,25.7608276 22.3879843,25.0800731 22.3879843,24.6088413 C22.3879843,23.7185642 21.9178502,23.482754 19.9064409,23.456596 L19.9064409,23.0376802 C21.238423,23.0638381 22.2572408,23.0899961 23.1716704,23.0899961 C24.1120679,23.0899961 25.105047,23.0638381 26.0190891,23.0376802 L26.0190891,23.456596 C24.3734258,23.456596 24.0340352,23.9804028 23.1194763,26.2323184 L17.5551242,40.8432239 L17.3721866,40.8432239 L13.1665595,29.3219364 Z" id="Fill-4" fill="#0C0C3C"></path>
                    <path d="M0.11498197,19.3452507 C1.75444399,19.2876254 2.27212124,19.0282472 2.53102446,18.2495946 C2.78979849,17.5000783 2.78979849,15.1648975 2.78979849,10.6384045 L2.78979849,9.60063266 C2.78979849,5.07413969 2.78979849,2.73895881 2.53102446,1.98944254 C2.27212124,1.21104892 1.72550471,0.951411714 0,0.8937865 L0,0.461273655 C1.15033647,0.490021514 2.58851545,0.518898869 3.85409227,0.518898869 C5.63747554,0.518898869 7.16208479,0.432525795 8.71511654,0.432525795 C13.4897105,0.40364844 16.7975739,2.30644597 16.7975739,5.76603075 C16.7975739,9.62938052 13.0293951,11.3302956 9.06045003,11.3302956 C8.45621332,11.3302956 8.08245732,11.3015477 7.4783498,11.2151746 L7.4783498,10.9556669 C11.2465286,10.9556669 12.6556391,8.62048604 12.6556391,5.85266282 C12.6556391,2.94071181 10.8438333,1.26867413 8.1685,1.26867413 C7.53584078,1.26867413 6.67295924,1.38379506 6.67295924,1.38379506 C6.61546825,3.48847509 6.61546825,5.70853503 6.61546825,9.68700573 L6.61546825,10.6384045 C6.61546825,14.5305021 6.64440754,17.4424531 6.8167513,18.0768485 C7.07565452,18.9416152 7.59333177,19.2588776 10.0093743,19.3452507 L10.0093743,19.7777635 C8.28386955,19.7488861 6.471547,19.7201383 4.774594,19.7201383 C3.07764099,19.7201383 1.49566996,19.7488861 0.11498197,19.7777635 L0.11498197,19.3452507 Z" id="Fill-6" fill="#0C0C3C"></path>
                    <path d="M20.6797269,4.09398012 C19.6154331,4.09398012 18.6665089,3.22895443 18.6665089,2.04705481 C18.6665089,0.836148336 19.6154331,0 20.6797269,0 C21.7725724,0 22.6929449,0.836148336 22.6929449,2.04705481 C22.6929449,3.22895443 21.7725724,4.09398012 20.6797269,4.09398012 L20.6797269,4.09398012 Z M23.4984647,19.7777506 C22.8658054,19.7490027 21.7440207,19.7201253 20.6222359,19.7201253 C19.5293904,19.7201253 18.3786664,19.7490027 17.7460072,19.7777506 L17.7460072,19.3741151 L18.0333329,19.3452377 C18.8677919,19.2299873 18.8677919,19.0569821 18.8677919,16.8081743 L18.8677919,10.4077612 C18.8677919,10.0331326 18.8388526,9.68699278 18.5225876,9.28335729 L17.8320498,8.24558546 L17.8320498,8.10132818 C19.2126086,7.66907432 21.1399132,6.91929906 22.3481282,6.28516271 L22.4920494,6.34278793 C22.4341709,6.94804692 22.3766799,8.27433332 22.3766799,9.8025022 L22.3766799,16.8081743 C22.3766799,19.0569821 22.3766799,19.2299873 23.1247087,19.3164899 L23.4984647,19.3741151 L23.4984647,19.7777506 Z" id="Fill-8" fill="#0C0C3C"></path>
                    <path d="M34.6295462,13.4061241 C34.6295462,9.80241156 33.4788221,7.00596997 31.4940266,7.00596997 C29.5382996,7.00596997 28.3879631,9.37002821 28.3879631,13.0314955 C28.3879631,16.6063307 29.5382996,19.4316496 31.4940266,19.4316496 C33.4788221,19.4316496 34.6295462,17.0675914 34.6295462,13.4061241 M38.5700687,13.1466164 C38.5700687,17.2405965 35.0897324,20.066045 31.4940266,20.066045 C27.9277769,20.066045 24.4183721,17.3270991 24.4183721,13.2908737 C24.4183721,9.19689357 27.9277769,6.34282677 31.4940266,6.34282677 C35.0897324,6.34282677 38.5700687,9.1105205 38.5700687,13.1466164" id="Fill-10" fill="#0C0C3C"></path>
                    <path d="M52.9511479,19.7777376 C52.3181011,19.7489897 51.2252556,19.7201124 50.1034709,19.7201124 C48.9816861,19.7201124 47.8599013,19.7489897 47.2272421,19.7777376 L47.2272421,19.3741021 L47.5145678,19.3452248 C48.3200876,19.2301038 48.3200876,19.0569692 48.3200876,16.8081614 L48.3200876,12.5122988 C48.3200876,10.1194927 47.6874284,8.47620286 45.8465541,8.47620286 C45.4438588,8.47620286 44.8397513,8.56257593 44.2356438,8.82208364 L44.2356438,16.8081614 C44.2356438,19.0569692 44.2356438,19.2301038 44.9836726,19.3164769 L45.3574286,19.3741021 L45.3574286,19.7777376 C44.7247693,19.7489897 43.6029846,19.7201124 42.4811998,19.7201124 C41.3883543,19.7201124 40.2376303,19.7489897 39.604971,19.7777376 L39.604971,19.3741021 L39.8922968,19.3452248 C40.7267558,19.2301038 40.7267558,19.0569692 40.7267558,16.8081614 L40.7267558,10.4077482 C40.7267558,10.0331196 40.6978165,9.68697984 40.3815515,9.28334434 L39.6910137,8.24557251 L39.6910137,8.10131523 C41.0715725,7.66906137 42.9988771,6.91928611 44.2070921,6.28514976 L44.3504966,6.34277498 C44.2931348,6.8616609 44.2645831,7.84193702 44.2356438,8.47620286 C45.4438588,7.52480409 47.2847331,6.34277498 48.7227829,6.34277498 C50.6211481,6.34277498 51.8579148,7.95731694 51.8579148,9.91761019 L51.8579148,16.8081614 C51.8579148,19.0569692 51.8579148,19.2301038 52.5768751,19.3164769 L52.9511479,19.3741021 L52.9511479,19.7777376 Z" id="Fill-12" fill="#0C0C3C"></path>
                    <path d="M57.4374085,10.5807922 L61.2920175,10.4367939 C61.8671857,10.4077871 62.0395295,10.0906542 62.0395295,9.68701868 C62.0395295,8.10135408 61.4643613,7.14995531 60.2561462,7.14995531 C58.8754582,7.14995531 57.782742,8.62049899 57.4374085,10.5807922 M60.0263115,20.066032 C56.5743977,20.066032 53.8420902,17.5577165 53.8420902,13.7233736 C53.8420902,9.3411379 57.2075737,6.34281382 60.630419,6.34281382 C63.1038233,6.34281382 65.1175581,7.66910022 65.1175581,9.97553324 C65.1175581,10.6095401 64.8007763,11.0996782 63.9378947,11.0996782 L57.351495,11.0996782 C57.3224265,11.3303085 57.3224265,11.5898162 57.3224265,11.8494534 C57.3224265,15.4819138 59.3357737,17.6443486 62.2409417,17.6443486 C63.4491568,17.6443486 64.4270203,17.2118357 65.3184535,16.2026823 L65.4623748,16.2893143 C64.6284325,18.5091153 62.3563113,20.066032 60.0263115,20.066032" id="Fill-14" fill="#0C0C3C"></path>
                    <path d="M69.7472877,10.5807922 L73.6018968,10.4367939 C74.177065,10.4077871 74.3494088,10.0906542 74.3494088,9.68701868 C74.3494088,8.10135408 73.7742405,7.14995531 72.5660255,7.14995531 C71.1853375,7.14995531 70.0926212,8.62049899 69.7472877,10.5807922 M72.3361907,20.066032 C68.884277,20.066032 66.1519695,17.5577165 66.1519695,13.7233736 C66.1519695,9.3411379 69.517453,6.34281382 72.9402983,6.34281382 C75.4137025,6.34281382 77.4270498,7.66910022 77.4270498,9.97553324 C77.4270498,10.6095401 77.1106555,11.0996782 76.247774,11.0996782 L69.6613742,11.0996782 C69.6323057,11.3303085 69.6323057,11.5898162 69.6323057,11.8494534 C69.6323057,15.4819138 71.645653,17.6443486 74.550821,17.6443486 C75.759036,17.6443486 76.7368995,17.2118357 77.6283328,16.2026823 L77.772254,16.2893143 C76.9383118,18.5091153 74.6656738,20.066032 72.3361907,20.066032" id="Fill-16" fill="#0C0C3C"></path>
                    <g id="Group-20" transform="translate(78.548860, 6.256143)">
                        <mask id="mask-5" fill="white">
                            <use xlink:href="#path-4"></use>
                        </mask>
                        <g id="Clip-19"></g>
                        <path d="M6.47141781,13.5215947 C5.66589805,13.4928468 4.42926051,13.4639695 3.19249377,13.4639695 C1.95572703,13.4639695 0.718960294,13.4928468 0,13.5215947 L0,13.1179592 L0.287325731,13.0890818 C1.12178477,12.9739609 1.12178477,12.8008263 1.12178477,10.5520185 L1.12178477,4.15160533 C1.12178477,3.77697669 1.09271629,3.43083692 0.776451279,3.02720143 L0.0859134943,1.98942959 L0.0859134943,1.84517231 C1.46660148,1.41291846 3.39377681,0.634395338 4.60212104,0 L4.74552552,0.0578842041 C4.68803454,0.663143198 4.63054355,2.01817745 4.63054355,2.96957622 L4.63054355,3.25809077 C5.75232832,1.49929153 6.8167513,0.115509419 8.16837081,0.115509419 C9.29015558,0.115509419 9.98069336,0.89377355 9.98069336,2.04705481 C9.98069336,3.20020657 9.06032083,3.86334977 8.25480108,3.86334977 C7.16195559,3.86334977 6.93160407,2.85432579 6.01123154,2.85432579 C5.52249357,2.85432579 5.09072982,3.17145871 4.63054355,3.63271942 L4.63054355,10.5232706 C4.63054355,12.7720784 4.65948283,12.9450836 5.37857232,13.0027088 L6.47141781,13.0890818 L6.47141781,13.5215947 Z" id="Fill-18" fill="#0C0C3C" mask="url(#mask-5)"></path>
                    </g>
                    <path d="M29.9370545,40.5813853 C29.20595,40.5552274 28.0822274,40.5290694 26.9590215,40.5290694 C25.8358156,40.5290694 24.7124805,40.5552274 24.0594087,40.5813853 L24.0594087,40.2147854 L24.3205082,40.1886274 C25.0783557,40.0839955 25.0783557,39.9267888 25.0783557,37.8843958 L25.0783557,32.0712419 C25.0783557,31.7310589 25.0520003,31.4167748 24.7646745,31.0500454 L24.1375706,30.1075817 L24.1375706,29.9765329 C25.3915201,29.5839045 27.1419591,28.8768626 28.2391971,28.3007399 L28.3699407,28.3531853 C28.317359,28.9030205 28.265165,30.1337397 28.265165,30.9977294 L28.265165,31.2596975 C29.2839827,29.6623784 30.2506064,28.4055013 31.4783296,28.4055013 C32.4971474,28.4055013 33.1242513,29.1124137 33.1242513,30.1598977 C33.1242513,31.2072521 32.2883712,31.8095327 31.5567499,31.8095327 C30.5642876,31.8095327 30.3549946,30.8930976 29.5191144,30.8930976 C29.0752065,30.8930976 28.683105,31.1810942 28.265165,31.60001 L28.265165,37.8582378 C28.265165,39.9006308 28.2913912,40.0578376 28.9444629,40.1101535 L29.9370545,40.1886274 L29.9370545,40.5813853 Z" id="Fill-21" fill="#0C0C3C"></path>
                    <path d="M36.3106989,26.3369373 C35.3440751,26.3369373 34.4822271,25.551292 34.4822271,24.4777796 C34.4822271,23.3781092 35.3440751,22.6186218 36.3106989,22.6186218 C37.3032904,22.6186218 38.1391706,23.3781092 38.1391706,24.4777796 C38.1391706,25.551292 37.3032904,26.3369373 36.3106989,26.3369373 L36.3106989,26.3369373 Z M38.8707918,40.5813724 C38.2961403,40.5552144 37.2773226,40.5290564 36.2585048,40.5290564 C35.2659132,40.5290564 34.2208693,40.5552144 33.6462178,40.5813724 L33.6462178,40.2147724 L33.9071881,40.1886144 C34.6650356,40.0839826 34.6650356,39.9267758 34.6650356,37.8843828 L34.6650356,32.0713584 C34.6650356,31.7310459 34.6388093,31.4167619 34.3514836,31.0500324 L33.7243797,30.1075688 L33.7243797,29.97652 C34.9783291,29.5838916 36.7286389,28.9030076 37.8260062,28.3270144 L37.9563621,28.3793303 C37.9041681,28.9291655 37.851974,30.1337268 37.851974,31.5215232 L37.851974,37.8843828 C37.851974,39.9267758 37.851974,40.0839826 38.531272,40.1624565 L38.8707918,40.2147724 L38.8707918,40.5813724 Z" id="Fill-23" fill="#0C0C3C"></path>
                    <path d="M40.594449,38.1986539 C40.594449,35.2921417 40.594449,32.1761068 40.6208045,30.8930717 L39.4712431,29.7669844 L39.4712431,29.6623525 C40.8036129,28.7983628 42.5798905,27.4627527 43.8076137,26.2322925 L43.9645835,26.3107664 C43.9123894,26.7558403 43.8076137,28.0911913 43.7816459,28.7983628 L47.9092402,28.6934719 C47.9092402,29.0863593 47.4391061,29.9503491 47.1777482,30.2121877 L43.7816459,30.1337138 L43.7816459,37.3868506 C43.7816459,38.3556017 44.6956879,38.6437278 45.8194106,38.6437278 C46.6030967,38.6437278 47.2821363,38.4866505 48.0136283,38.0152892 L48.0921778,38.119921 C47.2561685,39.5863209 45.7146349,40.843198 43.8598078,40.843198 C41.9527866,40.843198 40.594449,39.7958436 40.594449,38.1986539" id="Fill-25" fill="#0C0C3C"></path>
                    <path d="M51.1741855,26.3369373 C50.2075618,26.3369373 49.3457138,25.551292 49.3457138,24.4777796 C49.3457138,23.3781092 50.2075618,22.6186218 51.1741855,22.6186218 C52.1667771,22.6186218 53.0026572,23.3781092 53.0026572,24.4777796 C53.0026572,25.551292 52.1667771,26.3369373 51.1741855,26.3369373 L51.1741855,26.3369373 Z M53.7342785,40.5813724 C53.159627,40.5552144 52.1408092,40.5290564 51.1219915,40.5290564 C50.1293999,40.5290564 49.0843559,40.5552144 48.5097045,40.5813724 L48.5097045,40.2147724 L48.7706748,40.1886144 C49.5285222,40.0839826 49.5285222,39.9267758 49.5285222,37.8843828 L49.5285222,32.0713584 C49.5285222,31.7310459 49.502296,31.4167619 49.2149703,31.0500324 L48.5878664,30.1075688 L48.5878664,29.97652 C49.8418158,29.5838916 51.5921256,28.9030076 52.6894929,28.3270144 L52.8198488,28.3793303 C52.7676548,28.9291655 52.7154607,30.1337268 52.7154607,31.5215232 L52.7154607,37.8843828 C52.7154607,39.9267758 52.7154607,40.0839826 53.3947587,40.1624565 L53.7342785,40.2147724 L53.7342785,40.5813724 Z" id="Fill-27" fill="#0C0C3C"></path>
                    <path d="M66.7696552,40.5813853 C66.1946162,40.5552274 65.2021538,40.5290694 64.183336,40.5290694 C63.1643891,40.5290694 62.1455713,40.5552274 61.571049,40.5813853 L61.571049,40.2147854 L61.8320194,40.1886274 C62.5635114,40.0839955 62.5635114,39.9267888 62.5635114,37.8843958 L62.5635114,33.9827155 C62.5635114,31.8095327 61.9889891,30.3169749 60.3170996,30.3169749 C59.9513536,30.3169749 59.40267,30.3954488 58.8539863,30.6311295 L58.8539863,37.8843958 C58.8539863,39.9267888 58.8539863,40.0839955 59.5332843,40.1624694 L59.8728041,40.2147854 L59.8728041,40.5813853 C59.2982818,40.5552274 58.2793349,40.5290694 57.2605171,40.5290694 C56.2680548,40.5290694 55.2228816,40.5552274 54.6482301,40.5813853 L54.6482301,40.2147854 L54.9092004,40.1886274 C55.6671771,40.0839955 55.6671771,39.9267888 55.6671771,37.8843958 L55.6671771,32.0712419 C55.6671771,31.7310589 55.6408216,31.4167748 55.3534959,31.0500454 L54.726392,30.1075817 L54.726392,29.9765329 C55.9803414,29.5839045 57.7307804,28.9030205 58.8280185,28.3270274 L58.958762,28.3793433 C58.9061804,28.8507046 58.8802126,29.7408523 58.8539863,30.3169749 C59.9513536,29.4529852 61.6232431,28.3793433 62.9293866,28.3793433 C64.6534702,28.3793433 65.7766761,29.8457431 65.7766761,31.626168 L65.7766761,37.8843958 C65.7766761,39.9267888 65.7766761,40.0839955 66.4297478,40.1624694 L66.7696552,40.2147854 L66.7696552,40.5813853 Z" id="Fill-29" fill="#0C0C3C"></path>
                    <path d="M74.5275145,32.6212583 C74.5275145,30.7621006 73.9524755,28.9291008 72.6464612,28.9291008 C71.6797083,28.9291008 71.0266365,30.3170267 71.0266365,32.5166265 C71.0266365,34.3493673 71.6538696,36.1823671 72.9078191,36.1823671 C73.9002814,36.1823671 74.5275145,34.7944411 74.5275145,32.6212583 L74.5275145,32.6212583 Z M70.0863683,41.4977428 C69.8772044,41.8381848 69.7468485,42.2310722 69.7468485,42.7546199 C69.7468485,44.9280617 71.4968999,46.3157287 73.717473,46.3157287 C76.0687897,46.3157287 77.3485778,45.0852685 77.3485778,43.4356334 C77.3485778,42.0215495 76.1994041,41.4715848 74.7362908,41.4715848 L70.0863683,41.4977428 Z M72.0455835,47.3107672 C69.354747,47.3107672 67.2389496,46.1587809 67.2389496,44.2473072 C67.2389496,42.8333528 68.5710609,41.8643427 69.9297861,41.4454269 C68.9631624,41.1837177 67.9701832,40.4242304 67.9701832,39.2199281 C67.9701832,38.0938408 69.302553,36.9941704 70.3999202,36.2085251 C68.8587742,35.4754546 67.8920213,34.0353423 67.8920213,32.6735743 C67.8920213,30.0551881 70.1647885,28.3793951 72.7248815,28.3793951 C73.717473,28.3793951 74.6055472,28.6412337 75.3635239,29.0863075 C76.6173441,28.8767849 78.8902405,28.5101849 79.1512109,28.5101849 C79.4911182,28.5101849 79.5955063,28.745995 79.5955063,29.0601496 C79.5955063,29.4790655 79.3081806,30.107504 79.0204673,30.3955006 C78.4195896,30.2385528 77.3485778,30.107504 76.5389239,30.0551881 C77.1919956,30.7882585 77.5835803,31.7048232 77.5835803,32.5689424 C77.5835803,35.1611706 75.258619,36.7323318 72.7248815,36.7323318 C71.9674216,36.7323318 71.2617682,36.575125 70.6350519,36.3134159 C70.3477261,36.6797569 70.1647885,36.9680124 70.1647885,37.3607704 C70.1647885,37.963051 70.5828578,38.3293919 71.2617682,38.3293919 L76.0946284,38.303234 C78.0278758,38.303234 79.5955063,39.638844 79.5955063,41.4192689 C79.5955063,44.8233004 76.14721,47.3107672 72.0455835,47.3107672 L72.0455835,47.3107672 Z" id="Fill-31" fill="#0C0C3C"></path>
                    <g id="Group-35" transform="translate(79.856373, 28.379395)">
                        <mask id="mask-7" fill="white">
                            <use xlink:href="#path-6"></use>
                        </mask>
                        <g id="Clip-34"></g>
                        <path d="M0.182937606,11.4687126 L0,8.50988447 L0.182937606,8.45756855 C0.836009356,10.8141161 2.32509046,11.7306807 3.68329883,11.7306807 C5.06799181,11.7306807 5.90400117,10.9713228 5.90400117,9.76676162 C5.90400117,7.17453344 0.470263337,7.82912997 0.470263337,3.84910533 C0.470263337,1.67579303 2.40312317,0 4.93724827,0 C6.1911977,0 7.21001547,0.392757922 7.96747535,0.890277189 L8.12457431,3.24682472 L7.96747535,3.27298268 C7.41879172,1.67579303 6.40036153,0.733070424 4.91102204,0.733070424 C3.81404237,0.733070424 3.00400086,1.41382492 3.00400086,2.46143837 C3.00400086,4.87030183 8.67325793,4.47754391 8.67325793,8.37909466 C8.67325793,10.7879581 6.42632937,12.4637512 3.86623644,12.4637512 C2.56009294,12.4637512 0.966752899,12.0448353 0.182937606,11.4687126" id="Fill-33" fill="#0C0C3C" mask="url(#mask-7)"></path>
                    </g>
                </g>
            </g>
        </g>
    </g>
</svg>