<?xml version="1.0" encoding="UTF-8"?>
<svg width="23px" height="32px" viewBox="0 0 23 32" version="1.1" xmlns="http://www.w3.org/2000/svg" xmlns:xlink="http://www.w3.org/1999/xlink">
    <title>Group 3</title>
    <defs>
        <path d="M21.4865255,0 C16.8540535,0.530258502 10.3390263,2.70196456 6.21326383,6.73731241 L6.21326383,6.73731241 C2.72496396,10.1492306 0.602417656,13.7309273 0.115337695,18.7590115 L0.115337695,18.7590115 C0.114006876,18.772633 0.113008761,18.7864725 0.111677942,18.800094 L0.111677942,18.800094 C0.0969280248,18.9547255 0.0835089276,19.1106646 0.0718642564,19.2681294 L0.0718642564,19.2681294 C0.0675390928,19.3264295 0.0644338472,19.3859283 0.0604413885,19.4445553 L0.0604413885,19.4445553 C0.0529000776,19.5583222 0.0453587668,19.6719802 0.0393700787,19.7871638 L0.0393700787,19.7871638 C0.0341577021,19.8890527 0.0304979483,19.9922494 0.0266163913,20.095228 L0.0266163913,20.095228 C0.0241765554,20.1600665 0.0205168016,20.2239242 0.0185205723,20.2893074 L0.0185205723,20.2893074 C0.00654319618,20.4998416 0,20.7117925 0,20.9252689 L0,20.9252689 C0,20.9279932 0,20.9307175 0,20.9335508 L0,20.9335508 C0,20.9360572 0,20.9385635 0,20.9410699 L0,20.9410699 C0,20.9425955 0,20.9443391 0,20.9458647 L0,20.9458647 C0,20.9488069 0,20.9517492 0,20.9548004 L0,20.9548004 C0,20.9609028 0.000332704891,20.9670053 0.000554508151,20.9731077 L0.000554508151,20.9731077 C0.000554508151,20.9780115 0.000332704891,20.9829152 0.000332704891,20.9879279 L0.000332704891,20.9879279 C0.000332704891,21.0166966 0.00121991793,21.0452473 0.00144172119,21.0740159 L0.00144172119,21.0740159 C0.000776311412,21.0966821 0,21.1191304 0,21.1424504 L0,21.1424504 L0.000332704891,21.1423415 C0,21.1469183 0,21.1514951 0,21.1561809 L0,21.1561809 L0.00243983587,21.1546553 C0.093268271,27.1595659 5.0746368,32 11.207386,32 L11.207386,32 C17.396806,32 22.4144394,27.0697728 22.4144394,20.9879279 L22.4144394,20.9879279 C22.4144394,16.3519256 19.4987246,12.3855571 15.3710769,10.7614361 L15.3710769,10.7614361 L15.3795054,10.7372443 C15.4131086,10.6162852 15.4485971,10.4960889 15.4854164,10.3765465 L15.4854164,10.3765465 C15.4841965,10.3760016 15.4830875,10.3755657 15.4818676,10.3751298 L15.4818676,10.3751298 C16.7119885,6.36844166 19.7956083,3.20181983 22.9905734,1.32324887 L22.9905734,1.32324887 C22.9937895,1.32139634 22.9968948,1.31943484 23,1.31769129 L23,1.31769129 L22.4987246,0.883764171 C22.5002773,0.88321931 22.5019408,0.882347533 22.5037152,0.881802672 L22.5037152,0.881802672 L21.9951203,0.440901336 L21.4865255,0 Z" id="path-1"></path>
        <linearGradient x1="0%" y1="50.000039%" x2="99.9998413%" y2="50.000039%" id="linearGradient-3">
            <stop stop-color="#171777" offset="0%"></stop>
            <stop stop-color="#4138D1" offset="100%"></stop>
        </linearGradient>
    </defs>
    <g id="Page-1" stroke="none" stroke-width="1" fill="none" fill-rule="evenodd">
        <g id="Articles-Copy-4" transform="translate(-14.000000, -23.000000)">
            <g id="Group-3" transform="translate(14.000000, 23.000000)">
                <mask id="mask-2" fill="white">
                    <use xlink:href="#path-1"></use>
                </mask>
                <g id="Clip-2"></g>
                <path d="M21.4865255,0 C16.8540535,0.530258502 10.3390263,2.70196456 6.21326383,6.73731241 L6.21326383,6.73731241 C2.72496396,10.1492306 0.602417656,13.7309273 0.115337695,18.7590115 L0.115337695,18.7590115 C0.114006876,18.772633 0.113008761,18.7864725 0.111677942,18.800094 L0.111677942,18.800094 C0.0969280248,18.9547255 0.0835089276,19.1106646 0.0718642564,19.2681294 L0.0718642564,19.2681294 C0.0675390928,19.3264295 0.0644338472,19.3859283 0.0604413885,19.4445553 L0.0604413885,19.4445553 C0.0529000776,19.5583222 0.0453587668,19.6719802 0.0393700787,19.7871638 L0.0393700787,19.7871638 C0.0341577021,19.8890527 0.0304979483,19.9922494 0.0266163913,20.095228 L0.0266163913,20.095228 C0.0241765554,20.1600665 0.0205168016,20.2239242 0.0185205723,20.2893074 L0.0185205723,20.2893074 C0.00654319618,20.4998416 0,20.7117925 0,20.9252689 L0,20.9252689 C0,20.9279932 0,20.9307175 0,20.9335508 L0,20.9335508 C0,20.9360572 0,20.9385635 0,20.9410699 L0,20.9410699 C0,20.9425955 0,20.9443391 0,20.9458647 L0,20.9458647 C0,20.9488069 0,20.9517492 0,20.9548004 L0,20.9548004 C0,20.9609028 0.000332704891,20.9670053 0.000554508151,20.9731077 L0.000554508151,20.9731077 C0.000554508151,20.9780115 0.000332704891,20.9829152 0.000332704891,20.9879279 L0.000332704891,20.9879279 C0.000332704891,21.0166966 0.00121991793,21.0452473 0.00144172119,21.0740159 L0.00144172119,21.0740159 C0.000776311412,21.0966821 0,21.1191304 0,21.1424504 L0,21.1424504 L0.000332704891,21.1423415 C0,21.1469183 0,21.1514951 0,21.1561809 L0,21.1561809 L0.00243983587,21.1546553 C0.093268271,27.1595659 5.0746368,32 11.207386,32 L11.207386,32 C17.396806,32 22.4144394,27.0697728 22.4144394,20.9879279 L22.4144394,20.9879279 C22.4144394,16.3519256 19.4987246,12.3855571 15.3710769,10.7614361 L15.3710769,10.7614361 L15.3795054,10.7372443 C15.4131086,10.6162852 15.4485971,10.4960889 15.4854164,10.3765465 L15.4854164,10.3765465 C15.4841965,10.3760016 15.4830875,10.3755657 15.4818676,10.3751298 L15.4818676,10.3751298 C16.7119885,6.36844166 19.7956083,3.20181983 22.9905734,1.32324887 L22.9905734,1.32324887 C22.9937895,1.32139634 22.9968948,1.31943484 23,1.31769129 L23,1.31769129 L22.4987246,0.883764171 C22.5002773,0.88321931 22.5019408,0.882347533 22.5037152,0.881802672 L22.5037152,0.881802672 L21.9951203,0.440901336 L21.4865255,0 Z" id="Fill-1" fill="url(#linearGradient-3)" mask="url(#mask-2)"></path>
            </g>
        </g>
    </g>
</svg>